<mxfile host="app.diagrams.net" modified="2022-08-27T03:49:09.926Z" agent="5.0 (Windows NT 10.0; Win64; x64) AppleWebKit/537.36 (KHTML, like Gecko) Chrome/104.0.0.0 Safari/537.36" etag="M3RggbrMoiIYgH5F-gFm" version="20.2.7" type="github" pages="2">
  <diagram id="C5RBs43oDa-KdzZeNtuy" name="Page-1">
    <mxGraphModel dx="1278" dy="1716" grid="1" gridSize="10" guides="1" tooltips="1" connect="1" arrows="1" fold="1" page="1" pageScale="1" pageWidth="827" pageHeight="1169" math="0" shadow="0">
      <root>
        <mxCell id="WIyWlLk6GJQsqaUBKTNV-0" />
        <mxCell id="WIyWlLk6GJQsqaUBKTNV-1" parent="WIyWlLk6GJQsqaUBKTNV-0" />
        <mxCell id="Wsw88-fqIVrCZRTNJ-jJ-0" value="Nhu cầu mua sắm" style="ellipse;whiteSpace=wrap;html=1;" parent="WIyWlLk6GJQsqaUBKTNV-1" vertex="1">
          <mxGeometry x="165" y="-40" width="110" height="60" as="geometry" />
        </mxCell>
        <mxCell id="Wsw88-fqIVrCZRTNJ-jJ-3" value="Yêu cầu mua sắm" style="rounded=0;whiteSpace=wrap;html=1;" parent="WIyWlLk6GJQsqaUBKTNV-1" vertex="1">
          <mxGeometry x="160" y="90" width="120" height="60" as="geometry" />
        </mxCell>
        <mxCell id="Wsw88-fqIVrCZRTNJ-jJ-14" value="Không" style="edgeStyle=orthogonalEdgeStyle;rounded=0;orthogonalLoop=1;jettySize=auto;html=1;exitX=1;exitY=0.5;exitDx=0;exitDy=0;" parent="WIyWlLk6GJQsqaUBKTNV-1" source="Wsw88-fqIVrCZRTNJ-jJ-5" target="Wsw88-fqIVrCZRTNJ-jJ-13" edge="1">
          <mxGeometry x="-0.1321" relative="1" as="geometry">
            <mxPoint as="offset" />
          </mxGeometry>
        </mxCell>
        <mxCell id="Wsw88-fqIVrCZRTNJ-jJ-5" value="Có sản phẩm mới" style="rhombus;whiteSpace=wrap;html=1;" parent="WIyWlLk6GJQsqaUBKTNV-1" vertex="1">
          <mxGeometry x="354" y="85" width="130" height="70" as="geometry" />
        </mxCell>
        <mxCell id="Wsw88-fqIVrCZRTNJ-jJ-6" value="" style="endArrow=classic;html=1;rounded=0;exitX=1;exitY=0.5;exitDx=0;exitDy=0;entryX=0;entryY=0.5;entryDx=0;entryDy=0;" parent="WIyWlLk6GJQsqaUBKTNV-1" source="Wsw88-fqIVrCZRTNJ-jJ-3" target="Wsw88-fqIVrCZRTNJ-jJ-5" edge="1">
          <mxGeometry width="50" height="50" relative="1" as="geometry">
            <mxPoint x="390" y="200" as="sourcePoint" />
            <mxPoint x="440" y="150" as="targetPoint" />
          </mxGeometry>
        </mxCell>
        <mxCell id="Wsw88-fqIVrCZRTNJ-jJ-15" style="edgeStyle=orthogonalEdgeStyle;rounded=0;orthogonalLoop=1;jettySize=auto;html=1;endArrow=none;endFill=0;" parent="WIyWlLk6GJQsqaUBKTNV-1" source="Wsw88-fqIVrCZRTNJ-jJ-7" edge="1">
          <mxGeometry relative="1" as="geometry">
            <mxPoint x="560" y="120" as="targetPoint" />
          </mxGeometry>
        </mxCell>
        <mxCell id="Wsw88-fqIVrCZRTNJ-jJ-7" value="Tạo sản phẩm mới" style="rounded=0;whiteSpace=wrap;html=1;" parent="WIyWlLk6GJQsqaUBKTNV-1" vertex="1">
          <mxGeometry x="359" y="-40" width="120" height="60" as="geometry" />
        </mxCell>
        <mxCell id="Wsw88-fqIVrCZRTNJ-jJ-9" value="" style="endArrow=classic;html=1;rounded=0;exitX=0.5;exitY=1;exitDx=0;exitDy=0;" parent="WIyWlLk6GJQsqaUBKTNV-1" source="Wsw88-fqIVrCZRTNJ-jJ-0" target="Wsw88-fqIVrCZRTNJ-jJ-3" edge="1">
          <mxGeometry width="50" height="50" relative="1" as="geometry">
            <mxPoint x="390" y="200" as="sourcePoint" />
            <mxPoint x="440" y="150" as="targetPoint" />
          </mxGeometry>
        </mxCell>
        <mxCell id="Wsw88-fqIVrCZRTNJ-jJ-11" value="Có" style="endArrow=classic;html=1;rounded=0;entryX=0.5;entryY=1;entryDx=0;entryDy=0;" parent="WIyWlLk6GJQsqaUBKTNV-1" source="Wsw88-fqIVrCZRTNJ-jJ-5" target="Wsw88-fqIVrCZRTNJ-jJ-7" edge="1">
          <mxGeometry width="50" height="50" relative="1" as="geometry">
            <mxPoint x="390" y="200" as="sourcePoint" />
            <mxPoint x="440" y="150" as="targetPoint" />
          </mxGeometry>
        </mxCell>
        <mxCell id="Wsw88-fqIVrCZRTNJ-jJ-17" value="Có" style="edgeStyle=orthogonalEdgeStyle;rounded=0;orthogonalLoop=1;jettySize=auto;html=1;exitX=0.5;exitY=0;exitDx=0;exitDy=0;entryX=0.5;entryY=1;entryDx=0;entryDy=0;" parent="WIyWlLk6GJQsqaUBKTNV-1" source="Wsw88-fqIVrCZRTNJ-jJ-13" target="Wsw88-fqIVrCZRTNJ-jJ-16" edge="1">
          <mxGeometry relative="1" as="geometry" />
        </mxCell>
        <mxCell id="Wsw88-fqIVrCZRTNJ-jJ-20" style="edgeStyle=orthogonalEdgeStyle;rounded=0;orthogonalLoop=1;jettySize=auto;html=1;exitX=1;exitY=0.5;exitDx=0;exitDy=0;entryX=0;entryY=0.5;entryDx=0;entryDy=0;" parent="WIyWlLk6GJQsqaUBKTNV-1" source="Wsw88-fqIVrCZRTNJ-jJ-13" target="Wsw88-fqIVrCZRTNJ-jJ-18" edge="1">
          <mxGeometry relative="1" as="geometry" />
        </mxCell>
        <mxCell id="Wsw88-fqIVrCZRTNJ-jJ-22" value="Không" style="edgeLabel;html=1;align=center;verticalAlign=middle;resizable=0;points=[];" parent="Wsw88-fqIVrCZRTNJ-jJ-20" vertex="1" connectable="0">
          <mxGeometry x="-0.2897" relative="1" as="geometry">
            <mxPoint as="offset" />
          </mxGeometry>
        </mxCell>
        <mxCell id="Wsw88-fqIVrCZRTNJ-jJ-13" value="Có nhà cung cấp mới" style="rhombus;whiteSpace=wrap;html=1;" parent="WIyWlLk6GJQsqaUBKTNV-1" vertex="1">
          <mxGeometry x="595" y="85" width="130" height="70" as="geometry" />
        </mxCell>
        <mxCell id="Wsw88-fqIVrCZRTNJ-jJ-21" style="edgeStyle=orthogonalEdgeStyle;rounded=0;orthogonalLoop=1;jettySize=auto;html=1;exitX=1;exitY=0.5;exitDx=0;exitDy=0;endArrow=none;endFill=0;" parent="WIyWlLk6GJQsqaUBKTNV-1" source="Wsw88-fqIVrCZRTNJ-jJ-16" edge="1">
          <mxGeometry relative="1" as="geometry">
            <mxPoint x="830" y="120" as="targetPoint" />
            <Array as="points">
              <mxPoint x="810" y="-10" />
              <mxPoint x="810" y="120" />
            </Array>
          </mxGeometry>
        </mxCell>
        <mxCell id="Wsw88-fqIVrCZRTNJ-jJ-16" value="Tạo nhà cung cấp mới" style="rounded=0;whiteSpace=wrap;html=1;" parent="WIyWlLk6GJQsqaUBKTNV-1" vertex="1">
          <mxGeometry x="600" y="-40" width="120" height="60" as="geometry" />
        </mxCell>
        <mxCell id="Wsw88-fqIVrCZRTNJ-jJ-52" style="edgeStyle=orthogonalEdgeStyle;rounded=0;orthogonalLoop=1;jettySize=auto;html=1;exitX=1;exitY=0.5;exitDx=0;exitDy=0;entryX=0;entryY=0.5;entryDx=0;entryDy=0;endArrow=classic;endFill=1;" parent="WIyWlLk6GJQsqaUBKTNV-1" source="Wsw88-fqIVrCZRTNJ-jJ-18" target="Wsw88-fqIVrCZRTNJ-jJ-23" edge="1">
          <mxGeometry relative="1" as="geometry" />
        </mxCell>
        <mxCell id="Wsw88-fqIVrCZRTNJ-jJ-18" value="Tạo yêu cầu báo giá" style="rounded=0;whiteSpace=wrap;html=1;" parent="WIyWlLk6GJQsqaUBKTNV-1" vertex="1">
          <mxGeometry x="850" y="90" width="120" height="60" as="geometry" />
        </mxCell>
        <mxCell id="Wsw88-fqIVrCZRTNJ-jJ-63" value="" style="edgeStyle=orthogonalEdgeStyle;rounded=0;orthogonalLoop=1;jettySize=auto;html=1;endArrow=classic;endFill=1;" parent="WIyWlLk6GJQsqaUBKTNV-1" source="Wsw88-fqIVrCZRTNJ-jJ-23" target="Wsw88-fqIVrCZRTNJ-jJ-48" edge="1">
          <mxGeometry relative="1" as="geometry" />
        </mxCell>
        <mxCell id="Wsw88-fqIVrCZRTNJ-jJ-23" value="Yêu cầu báo giá" style="shape=parallelogram;perimeter=parallelogramPerimeter;whiteSpace=wrap;html=1;fixedSize=1;" parent="WIyWlLk6GJQsqaUBKTNV-1" vertex="1">
          <mxGeometry x="1070" y="90" width="140" height="60" as="geometry" />
        </mxCell>
        <mxCell id="Wsw88-fqIVrCZRTNJ-jJ-32" style="edgeStyle=orthogonalEdgeStyle;rounded=0;orthogonalLoop=1;jettySize=auto;html=1;exitX=0;exitY=0.5;exitDx=0;exitDy=0;entryX=1;entryY=0.5;entryDx=0;entryDy=0;" parent="WIyWlLk6GJQsqaUBKTNV-1" source="Wsw88-fqIVrCZRTNJ-jJ-27" target="Wsw88-fqIVrCZRTNJ-jJ-30" edge="1">
          <mxGeometry relative="1" as="geometry" />
        </mxCell>
        <mxCell id="Wsw88-fqIVrCZRTNJ-jJ-27" value="Đơn mua hàng" style="shape=parallelogram;perimeter=parallelogramPerimeter;whiteSpace=wrap;html=1;fixedSize=1;" parent="WIyWlLk6GJQsqaUBKTNV-1" vertex="1">
          <mxGeometry x="400" y="250" width="120" height="60" as="geometry" />
        </mxCell>
        <mxCell id="Wsw88-fqIVrCZRTNJ-jJ-40" style="edgeStyle=orthogonalEdgeStyle;rounded=0;orthogonalLoop=1;jettySize=auto;html=1;exitX=0.5;exitY=1;exitDx=0;exitDy=0;" parent="WIyWlLk6GJQsqaUBKTNV-1" source="Wsw88-fqIVrCZRTNJ-jJ-30" target="Wsw88-fqIVrCZRTNJ-jJ-38" edge="1">
          <mxGeometry relative="1" as="geometry" />
        </mxCell>
        <mxCell id="Wsw88-fqIVrCZRTNJ-jJ-30" value="Thanh Toán" style="rounded=0;whiteSpace=wrap;html=1;" parent="WIyWlLk6GJQsqaUBKTNV-1" vertex="1">
          <mxGeometry x="155" y="250" width="120" height="60" as="geometry" />
        </mxCell>
        <mxCell id="Wsw88-fqIVrCZRTNJ-jJ-36" style="edgeStyle=orthogonalEdgeStyle;rounded=0;orthogonalLoop=1;jettySize=auto;html=1;exitX=0;exitY=0.5;exitDx=0;exitDy=0;entryX=1;entryY=0.5;entryDx=0;entryDy=0;" parent="WIyWlLk6GJQsqaUBKTNV-1" source="Wsw88-fqIVrCZRTNJ-jJ-33" target="Wsw88-fqIVrCZRTNJ-jJ-35" edge="1">
          <mxGeometry relative="1" as="geometry" />
        </mxCell>
        <mxCell id="Wsw88-fqIVrCZRTNJ-jJ-33" value="Thông tin nhập kho" style="shape=parallelogram;perimeter=parallelogramPerimeter;whiteSpace=wrap;html=1;fixedSize=1;" parent="WIyWlLk6GJQsqaUBKTNV-1" vertex="1">
          <mxGeometry x="540" y="400" width="130" height="60" as="geometry" />
        </mxCell>
        <mxCell id="Wsw88-fqIVrCZRTNJ-jJ-39" style="edgeStyle=orthogonalEdgeStyle;rounded=0;orthogonalLoop=1;jettySize=auto;html=1;exitX=0;exitY=0.5;exitDx=0;exitDy=0;entryX=1;entryY=0.5;entryDx=0;entryDy=0;" parent="WIyWlLk6GJQsqaUBKTNV-1" source="Wsw88-fqIVrCZRTNJ-jJ-35" target="Wsw88-fqIVrCZRTNJ-jJ-38" edge="1">
          <mxGeometry relative="1" as="geometry" />
        </mxCell>
        <mxCell id="Wsw88-fqIVrCZRTNJ-jJ-35" value="Nhập Kho" style="rounded=0;whiteSpace=wrap;html=1;" parent="WIyWlLk6GJQsqaUBKTNV-1" vertex="1">
          <mxGeometry x="354" y="400" width="120" height="60" as="geometry" />
        </mxCell>
        <mxCell id="Wsw88-fqIVrCZRTNJ-jJ-38" value="Kết thúc" style="ellipse;whiteSpace=wrap;html=1;" parent="WIyWlLk6GJQsqaUBKTNV-1" vertex="1">
          <mxGeometry x="160" y="400" width="110" height="60" as="geometry" />
        </mxCell>
        <mxCell id="Wsw88-fqIVrCZRTNJ-jJ-65" value="Đạt" style="edgeStyle=orthogonalEdgeStyle;rounded=0;orthogonalLoop=1;jettySize=auto;html=1;endArrow=classic;endFill=1;" parent="WIyWlLk6GJQsqaUBKTNV-1" source="Wsw88-fqIVrCZRTNJ-jJ-41" target="Wsw88-fqIVrCZRTNJ-jJ-51" edge="1">
          <mxGeometry relative="1" as="geometry" />
        </mxCell>
        <mxCell id="Wsw88-fqIVrCZRTNJ-jJ-66" value="Không đạt" style="edgeStyle=orthogonalEdgeStyle;rounded=0;orthogonalLoop=1;jettySize=auto;html=1;endArrow=classic;endFill=1;" parent="WIyWlLk6GJQsqaUBKTNV-1" source="Wsw88-fqIVrCZRTNJ-jJ-41" target="Wsw88-fqIVrCZRTNJ-jJ-46" edge="1">
          <mxGeometry relative="1" as="geometry" />
        </mxCell>
        <mxCell id="Wsw88-fqIVrCZRTNJ-jJ-41" value="Nhận báo giá" style="rhombus;whiteSpace=wrap;html=1;" parent="WIyWlLk6GJQsqaUBKTNV-1" vertex="1">
          <mxGeometry x="880" y="245" width="130" height="70" as="geometry" />
        </mxCell>
        <mxCell id="Wsw88-fqIVrCZRTNJ-jJ-46" value="Kết thúc" style="ellipse;whiteSpace=wrap;html=1;" parent="WIyWlLk6GJQsqaUBKTNV-1" vertex="1">
          <mxGeometry x="890" y="400" width="110" height="60" as="geometry" />
        </mxCell>
        <mxCell id="Wsw88-fqIVrCZRTNJ-jJ-64" value="" style="edgeStyle=orthogonalEdgeStyle;rounded=0;orthogonalLoop=1;jettySize=auto;html=1;endArrow=classic;endFill=1;" parent="WIyWlLk6GJQsqaUBKTNV-1" source="Wsw88-fqIVrCZRTNJ-jJ-48" target="Wsw88-fqIVrCZRTNJ-jJ-41" edge="1">
          <mxGeometry relative="1" as="geometry" />
        </mxCell>
        <mxCell id="Wsw88-fqIVrCZRTNJ-jJ-48" value="Gửi yêu cầu báo giá cho nhà cung cấp" style="rounded=0;whiteSpace=wrap;html=1;" parent="WIyWlLk6GJQsqaUBKTNV-1" vertex="1">
          <mxGeometry x="1080" y="250" width="120" height="60" as="geometry" />
        </mxCell>
        <mxCell id="Wsw88-fqIVrCZRTNJ-jJ-58" value="" style="edgeStyle=orthogonalEdgeStyle;rounded=0;orthogonalLoop=1;jettySize=auto;html=1;endArrow=classic;endFill=1;exitX=0;exitY=0.5;exitDx=0;exitDy=0;" parent="WIyWlLk6GJQsqaUBKTNV-1" source="Wsw88-fqIVrCZRTNJ-jJ-51" target="Wsw88-fqIVrCZRTNJ-jJ-33" edge="1">
          <mxGeometry relative="1" as="geometry" />
        </mxCell>
        <mxCell id="Wsw88-fqIVrCZRTNJ-jJ-59" style="edgeStyle=orthogonalEdgeStyle;rounded=0;orthogonalLoop=1;jettySize=auto;html=1;endArrow=classic;endFill=1;" parent="WIyWlLk6GJQsqaUBKTNV-1" source="Wsw88-fqIVrCZRTNJ-jJ-51" target="Wsw88-fqIVrCZRTNJ-jJ-46" edge="1">
          <mxGeometry relative="1" as="geometry">
            <Array as="points">
              <mxPoint x="715" y="440" />
            </Array>
          </mxGeometry>
        </mxCell>
        <mxCell id="Wsw88-fqIVrCZRTNJ-jJ-68" value="Hủy đơn" style="edgeLabel;html=1;align=center;verticalAlign=middle;resizable=0;points=[];" parent="Wsw88-fqIVrCZRTNJ-jJ-59" vertex="1" connectable="0">
          <mxGeometry x="-0.7796" y="-1" relative="1" as="geometry">
            <mxPoint x="1" y="12" as="offset" />
          </mxGeometry>
        </mxCell>
        <mxCell id="Wsw88-fqIVrCZRTNJ-jJ-60" style="edgeStyle=orthogonalEdgeStyle;rounded=0;orthogonalLoop=1;jettySize=auto;html=1;entryX=1;entryY=0.5;entryDx=0;entryDy=0;endArrow=classic;endFill=1;" parent="WIyWlLk6GJQsqaUBKTNV-1" source="Wsw88-fqIVrCZRTNJ-jJ-51" target="Wsw88-fqIVrCZRTNJ-jJ-27" edge="1">
          <mxGeometry relative="1" as="geometry" />
        </mxCell>
        <mxCell id="Wsw88-fqIVrCZRTNJ-jJ-69" value="Mua" style="edgeLabel;html=1;align=center;verticalAlign=middle;resizable=0;points=[];" parent="Wsw88-fqIVrCZRTNJ-jJ-60" vertex="1" connectable="0">
          <mxGeometry x="-0.2086" y="-3" relative="1" as="geometry">
            <mxPoint x="-15" y="3" as="offset" />
          </mxGeometry>
        </mxCell>
        <mxCell id="Wsw88-fqIVrCZRTNJ-jJ-51" value="Xác nhận đơn hàng" style="rhombus;whiteSpace=wrap;html=1;" parent="WIyWlLk6GJQsqaUBKTNV-1" vertex="1">
          <mxGeometry x="650" y="245" width="130" height="70" as="geometry" />
        </mxCell>
        <mxCell id="Wsw88-fqIVrCZRTNJ-jJ-108" value="" style="edgeStyle=orthogonalEdgeStyle;rounded=0;orthogonalLoop=1;jettySize=auto;html=1;endArrow=classic;endFill=1;" parent="WIyWlLk6GJQsqaUBKTNV-1" source="Wsw88-fqIVrCZRTNJ-jJ-70" target="Wsw88-fqIVrCZRTNJ-jJ-102" edge="1">
          <mxGeometry relative="1" as="geometry" />
        </mxCell>
        <mxCell id="Wsw88-fqIVrCZRTNJ-jJ-70" value="Liên hệ mua hàng" style="ellipse;whiteSpace=wrap;html=1;" parent="WIyWlLk6GJQsqaUBKTNV-1" vertex="1">
          <mxGeometry x="50" y="680" width="110" height="60" as="geometry" />
        </mxCell>
        <mxCell id="Wsw88-fqIVrCZRTNJ-jJ-80" value="" style="edgeStyle=orthogonalEdgeStyle;rounded=0;orthogonalLoop=1;jettySize=auto;html=1;endArrow=classic;endFill=1;entryX=0;entryY=0.5;entryDx=0;entryDy=0;" parent="WIyWlLk6GJQsqaUBKTNV-1" source="Wsw88-fqIVrCZRTNJ-jJ-71" target="Wsw88-fqIVrCZRTNJ-jJ-73" edge="1">
          <mxGeometry relative="1" as="geometry">
            <mxPoint x="610" y="840" as="targetPoint" />
          </mxGeometry>
        </mxCell>
        <mxCell id="Wsw88-fqIVrCZRTNJ-jJ-71" value="Tạo báo giá" style="rounded=0;whiteSpace=wrap;html=1;" parent="WIyWlLk6GJQsqaUBKTNV-1" vertex="1">
          <mxGeometry x="440" y="810" width="120" height="60" as="geometry" />
        </mxCell>
        <mxCell id="Wsw88-fqIVrCZRTNJ-jJ-82" value="" style="edgeStyle=orthogonalEdgeStyle;rounded=0;orthogonalLoop=1;jettySize=auto;html=1;endArrow=classic;endFill=1;" parent="WIyWlLk6GJQsqaUBKTNV-1" source="Wsw88-fqIVrCZRTNJ-jJ-73" target="Wsw88-fqIVrCZRTNJ-jJ-74" edge="1">
          <mxGeometry relative="1" as="geometry" />
        </mxCell>
        <mxCell id="Wsw88-fqIVrCZRTNJ-jJ-73" value="Gửi báo giá" style="rounded=0;whiteSpace=wrap;html=1;" parent="WIyWlLk6GJQsqaUBKTNV-1" vertex="1">
          <mxGeometry x="650" y="810" width="120" height="60" as="geometry" />
        </mxCell>
        <mxCell id="Wsw88-fqIVrCZRTNJ-jJ-89" style="edgeStyle=orthogonalEdgeStyle;rounded=0;orthogonalLoop=1;jettySize=auto;html=1;endArrow=classic;endFill=1;" parent="WIyWlLk6GJQsqaUBKTNV-1" source="Wsw88-fqIVrCZRTNJ-jJ-74" target="Wsw88-fqIVrCZRTNJ-jJ-87" edge="1">
          <mxGeometry relative="1" as="geometry" />
        </mxCell>
        <mxCell id="Wsw88-fqIVrCZRTNJ-jJ-139" value="Chưa" style="edgeLabel;html=1;align=center;verticalAlign=middle;resizable=0;points=[];" parent="Wsw88-fqIVrCZRTNJ-jJ-89" vertex="1" connectable="0">
          <mxGeometry x="-0.1533" y="2" relative="1" as="geometry">
            <mxPoint x="1" as="offset" />
          </mxGeometry>
        </mxCell>
        <mxCell id="Wsw88-fqIVrCZRTNJ-jJ-140" value="Đã gửi" style="edgeStyle=orthogonalEdgeStyle;rounded=0;orthogonalLoop=1;jettySize=auto;html=1;endArrow=classic;endFill=1;" parent="WIyWlLk6GJQsqaUBKTNV-1" source="Wsw88-fqIVrCZRTNJ-jJ-74" target="Wsw88-fqIVrCZRTNJ-jJ-78" edge="1">
          <mxGeometry relative="1" as="geometry" />
        </mxCell>
        <mxCell id="Wsw88-fqIVrCZRTNJ-jJ-74" value="Báo giá đã gửi" style="rhombus;whiteSpace=wrap;html=1;" parent="WIyWlLk6GJQsqaUBKTNV-1" vertex="1">
          <mxGeometry x="845" y="805" width="130" height="70" as="geometry" />
        </mxCell>
        <mxCell id="Wsw88-fqIVrCZRTNJ-jJ-90" value="Không" style="edgeStyle=orthogonalEdgeStyle;rounded=0;orthogonalLoop=1;jettySize=auto;html=1;entryX=0.5;entryY=1;entryDx=0;entryDy=0;endArrow=classic;endFill=1;" parent="WIyWlLk6GJQsqaUBKTNV-1" source="Wsw88-fqIVrCZRTNJ-jJ-78" target="Wsw88-fqIVrCZRTNJ-jJ-87" edge="1">
          <mxGeometry relative="1" as="geometry" />
        </mxCell>
        <mxCell id="Wsw88-fqIVrCZRTNJ-jJ-114" value="Có" style="edgeStyle=orthogonalEdgeStyle;rounded=0;orthogonalLoop=1;jettySize=auto;html=1;endArrow=classic;endFill=1;" parent="WIyWlLk6GJQsqaUBKTNV-1" source="Wsw88-fqIVrCZRTNJ-jJ-78" target="Wsw88-fqIVrCZRTNJ-jJ-113" edge="1">
          <mxGeometry relative="1" as="geometry" />
        </mxCell>
        <mxCell id="Wsw88-fqIVrCZRTNJ-jJ-78" value="Khách hàng&lt;br&gt;&amp;nbsp;mua hàng?" style="rhombus;whiteSpace=wrap;html=1;" parent="WIyWlLk6GJQsqaUBKTNV-1" vertex="1">
          <mxGeometry x="845" y="965" width="130" height="70" as="geometry" />
        </mxCell>
        <mxCell id="Wsw88-fqIVrCZRTNJ-jJ-98" value="Đủ" style="edgeStyle=orthogonalEdgeStyle;rounded=0;orthogonalLoop=1;jettySize=auto;html=1;endArrow=classic;endFill=1;" parent="WIyWlLk6GJQsqaUBKTNV-1" source="Wsw88-fqIVrCZRTNJ-jJ-115" target="Wsw88-fqIVrCZRTNJ-jJ-94" edge="1">
          <mxGeometry relative="1" as="geometry">
            <mxPoint x="330" y="1000" as="sourcePoint" />
          </mxGeometry>
        </mxCell>
        <mxCell id="Wsw88-fqIVrCZRTNJ-jJ-87" value="Kết thúc" style="ellipse;whiteSpace=wrap;html=1;" parent="WIyWlLk6GJQsqaUBKTNV-1" vertex="1">
          <mxGeometry x="990" y="890" width="110" height="60" as="geometry" />
        </mxCell>
        <mxCell id="Wsw88-fqIVrCZRTNJ-jJ-97" value="" style="edgeStyle=orthogonalEdgeStyle;rounded=0;orthogonalLoop=1;jettySize=auto;html=1;endArrow=classic;endFill=1;" parent="WIyWlLk6GJQsqaUBKTNV-1" source="Wsw88-fqIVrCZRTNJ-jJ-92" target="Wsw88-fqIVrCZRTNJ-jJ-93" edge="1">
          <mxGeometry relative="1" as="geometry" />
        </mxCell>
        <mxCell id="Wsw88-fqIVrCZRTNJ-jJ-92" value="Xuất kho&lt;br&gt;(Quy trình kho)" style="rounded=0;whiteSpace=wrap;html=1;" parent="WIyWlLk6GJQsqaUBKTNV-1" vertex="1">
          <mxGeometry x="250" y="1120" width="120" height="60" as="geometry" />
        </mxCell>
        <mxCell id="Wsw88-fqIVrCZRTNJ-jJ-93" value="Kết thúc" style="ellipse;whiteSpace=wrap;html=1;" parent="WIyWlLk6GJQsqaUBKTNV-1" vertex="1">
          <mxGeometry x="60" y="1120" width="110" height="60" as="geometry" />
        </mxCell>
        <mxCell id="Wsw88-fqIVrCZRTNJ-jJ-99" value="" style="edgeStyle=orthogonalEdgeStyle;rounded=0;orthogonalLoop=1;jettySize=auto;html=1;endArrow=classic;endFill=1;" parent="WIyWlLk6GJQsqaUBKTNV-1" source="Wsw88-fqIVrCZRTNJ-jJ-94" target="Wsw88-fqIVrCZRTNJ-jJ-93" edge="1">
          <mxGeometry relative="1" as="geometry" />
        </mxCell>
        <mxCell id="Wsw88-fqIVrCZRTNJ-jJ-94" value="Thanh toán&lt;br&gt;(Quy trình thanh toán)" style="rounded=0;whiteSpace=wrap;html=1;" parent="WIyWlLk6GJQsqaUBKTNV-1" vertex="1">
          <mxGeometry x="55" y="970" width="120" height="60" as="geometry" />
        </mxCell>
        <mxCell id="Wsw88-fqIVrCZRTNJ-jJ-107" value="" style="edgeStyle=orthogonalEdgeStyle;rounded=0;orthogonalLoop=1;jettySize=auto;html=1;endArrow=classic;endFill=1;" parent="WIyWlLk6GJQsqaUBKTNV-1" source="Wsw88-fqIVrCZRTNJ-jJ-102" target="Wsw88-fqIVrCZRTNJ-jJ-104" edge="1">
          <mxGeometry relative="1" as="geometry" />
        </mxCell>
        <mxCell id="Wsw88-fqIVrCZRTNJ-jJ-102" value="Tiếp nhận yêu cầu, trao đổi" style="rounded=0;whiteSpace=wrap;html=1;" parent="WIyWlLk6GJQsqaUBKTNV-1" vertex="1">
          <mxGeometry x="45" y="810" width="120" height="60" as="geometry" />
        </mxCell>
        <mxCell id="Wsw88-fqIVrCZRTNJ-jJ-109" value="" style="edgeStyle=orthogonalEdgeStyle;rounded=0;orthogonalLoop=1;jettySize=auto;html=1;endArrow=classic;endFill=1;" parent="WIyWlLk6GJQsqaUBKTNV-1" source="Wsw88-fqIVrCZRTNJ-jJ-104" target="Wsw88-fqIVrCZRTNJ-jJ-105" edge="1">
          <mxGeometry relative="1" as="geometry" />
        </mxCell>
        <mxCell id="Wsw88-fqIVrCZRTNJ-jJ-110" value="" style="edgeStyle=orthogonalEdgeStyle;rounded=0;orthogonalLoop=1;jettySize=auto;html=1;endArrow=classic;endFill=1;" parent="WIyWlLk6GJQsqaUBKTNV-1" source="Wsw88-fqIVrCZRTNJ-jJ-104" target="Wsw88-fqIVrCZRTNJ-jJ-71" edge="1">
          <mxGeometry relative="1" as="geometry" />
        </mxCell>
        <mxCell id="Wsw88-fqIVrCZRTNJ-jJ-104" value="Khách hàng đã&lt;br&gt;&amp;nbsp;có liên hệ" style="rhombus;whiteSpace=wrap;html=1;" parent="WIyWlLk6GJQsqaUBKTNV-1" vertex="1">
          <mxGeometry x="240" y="805" width="130" height="70" as="geometry" />
        </mxCell>
        <mxCell id="Wsw88-fqIVrCZRTNJ-jJ-105" value="Tạo liên hệ mới" style="rounded=0;whiteSpace=wrap;html=1;" parent="WIyWlLk6GJQsqaUBKTNV-1" vertex="1">
          <mxGeometry x="245" y="680" width="120" height="60" as="geometry" />
        </mxCell>
        <mxCell id="Wsw88-fqIVrCZRTNJ-jJ-116" style="edgeStyle=orthogonalEdgeStyle;rounded=0;orthogonalLoop=1;jettySize=auto;html=1;endArrow=classic;endFill=1;" parent="WIyWlLk6GJQsqaUBKTNV-1" source="Wsw88-fqIVrCZRTNJ-jJ-113" target="Wsw88-fqIVrCZRTNJ-jJ-115" edge="1">
          <mxGeometry relative="1" as="geometry" />
        </mxCell>
        <mxCell id="Wsw88-fqIVrCZRTNJ-jJ-113" value="Xác nhận đơn hàng" style="rounded=0;whiteSpace=wrap;html=1;" parent="WIyWlLk6GJQsqaUBKTNV-1" vertex="1">
          <mxGeometry x="650" y="970" width="120" height="60" as="geometry" />
        </mxCell>
        <mxCell id="Wsw88-fqIVrCZRTNJ-jJ-118" style="edgeStyle=orthogonalEdgeStyle;rounded=0;orthogonalLoop=1;jettySize=auto;html=1;exitX=0.5;exitY=1;exitDx=0;exitDy=0;entryX=0;entryY=0.5;entryDx=0;entryDy=0;endArrow=classic;endFill=1;" parent="WIyWlLk6GJQsqaUBKTNV-1" source="Wsw88-fqIVrCZRTNJ-jJ-115" target="Wsw88-fqIVrCZRTNJ-jJ-117" edge="1">
          <mxGeometry relative="1" as="geometry">
            <Array as="points">
              <mxPoint x="495" y="1110" />
            </Array>
          </mxGeometry>
        </mxCell>
        <mxCell id="Wsw88-fqIVrCZRTNJ-jJ-124" style="edgeStyle=orthogonalEdgeStyle;rounded=0;orthogonalLoop=1;jettySize=auto;html=1;entryX=0.002;entryY=0.57;entryDx=0;entryDy=0;entryPerimeter=0;endArrow=classic;endFill=1;" parent="WIyWlLk6GJQsqaUBKTNV-1" source="Wsw88-fqIVrCZRTNJ-jJ-115" target="Wsw88-fqIVrCZRTNJ-jJ-119" edge="1">
          <mxGeometry relative="1" as="geometry">
            <Array as="points">
              <mxPoint x="495" y="1214" />
            </Array>
          </mxGeometry>
        </mxCell>
        <mxCell id="Wsw88-fqIVrCZRTNJ-jJ-125" value="Thiếu" style="edgeStyle=orthogonalEdgeStyle;rounded=0;orthogonalLoop=1;jettySize=auto;html=1;entryX=0;entryY=0.5;entryDx=0;entryDy=0;endArrow=classic;endFill=1;" parent="WIyWlLk6GJQsqaUBKTNV-1" source="Wsw88-fqIVrCZRTNJ-jJ-115" target="Wsw88-fqIVrCZRTNJ-jJ-120" edge="1">
          <mxGeometry x="-0.744" relative="1" as="geometry">
            <Array as="points">
              <mxPoint x="495" y="1310" />
            </Array>
            <mxPoint y="-1" as="offset" />
          </mxGeometry>
        </mxCell>
        <mxCell id="Wsw88-fqIVrCZRTNJ-jJ-115" value="Đủ hàng?" style="rhombus;whiteSpace=wrap;html=1;" parent="WIyWlLk6GJQsqaUBKTNV-1" vertex="1">
          <mxGeometry x="435" y="965" width="130" height="70" as="geometry" />
        </mxCell>
        <mxCell id="Wsw88-fqIVrCZRTNJ-jJ-133" style="edgeStyle=orthogonalEdgeStyle;rounded=0;orthogonalLoop=1;jettySize=auto;html=1;entryX=0;entryY=0;entryDx=0;entryDy=0;endArrow=classic;endFill=1;" parent="WIyWlLk6GJQsqaUBKTNV-1" source="Wsw88-fqIVrCZRTNJ-jJ-117" target="Wsw88-fqIVrCZRTNJ-jJ-132" edge="1">
          <mxGeometry relative="1" as="geometry" />
        </mxCell>
        <mxCell id="Wsw88-fqIVrCZRTNJ-jJ-117" value="Quy trình mua hàng" style="rounded=0;whiteSpace=wrap;html=1;" parent="WIyWlLk6GJQsqaUBKTNV-1" vertex="1">
          <mxGeometry x="590" y="1080" width="120" height="60" as="geometry" />
        </mxCell>
        <mxCell id="Wsw88-fqIVrCZRTNJ-jJ-135" style="edgeStyle=orthogonalEdgeStyle;rounded=0;orthogonalLoop=1;jettySize=auto;html=1;entryX=0;entryY=0.5;entryDx=0;entryDy=0;endArrow=classic;endFill=1;" parent="WIyWlLk6GJQsqaUBKTNV-1" source="Wsw88-fqIVrCZRTNJ-jJ-119" target="Wsw88-fqIVrCZRTNJ-jJ-132" edge="1">
          <mxGeometry relative="1" as="geometry" />
        </mxCell>
        <mxCell id="Wsw88-fqIVrCZRTNJ-jJ-119" value="Quy trình sản xuất" style="rounded=0;whiteSpace=wrap;html=1;" parent="WIyWlLk6GJQsqaUBKTNV-1" vertex="1">
          <mxGeometry x="590" y="1180" width="120" height="60" as="geometry" />
        </mxCell>
        <mxCell id="Wsw88-fqIVrCZRTNJ-jJ-136" style="edgeStyle=orthogonalEdgeStyle;rounded=0;orthogonalLoop=1;jettySize=auto;html=1;entryX=0;entryY=1;entryDx=0;entryDy=0;endArrow=classic;endFill=1;" parent="WIyWlLk6GJQsqaUBKTNV-1" source="Wsw88-fqIVrCZRTNJ-jJ-120" target="Wsw88-fqIVrCZRTNJ-jJ-132" edge="1">
          <mxGeometry relative="1" as="geometry" />
        </mxCell>
        <mxCell id="Wsw88-fqIVrCZRTNJ-jJ-120" value="Điều chuyển nội bộ&lt;br&gt;(Quy trình kho)" style="rounded=0;whiteSpace=wrap;html=1;" parent="WIyWlLk6GJQsqaUBKTNV-1" vertex="1">
          <mxGeometry x="590" y="1280" width="120" height="60" as="geometry" />
        </mxCell>
        <mxCell id="Wsw88-fqIVrCZRTNJ-jJ-127" value="" style="endArrow=classic;html=1;rounded=0;entryX=0.593;entryY=0.033;entryDx=0;entryDy=0;entryPerimeter=0;" parent="WIyWlLk6GJQsqaUBKTNV-1" target="Wsw88-fqIVrCZRTNJ-jJ-92" edge="1">
          <mxGeometry width="50" height="50" relative="1" as="geometry">
            <mxPoint x="321" y="1000" as="sourcePoint" />
            <mxPoint x="570" y="1030" as="targetPoint" />
          </mxGeometry>
        </mxCell>
        <mxCell id="Wsw88-fqIVrCZRTNJ-jJ-137" style="edgeStyle=orthogonalEdgeStyle;rounded=0;orthogonalLoop=1;jettySize=auto;html=1;endArrow=classic;endFill=1;" parent="WIyWlLk6GJQsqaUBKTNV-1" source="Wsw88-fqIVrCZRTNJ-jJ-132" edge="1">
          <mxGeometry relative="1" as="geometry">
            <mxPoint x="420" y="1000" as="targetPoint" />
            <Array as="points">
              <mxPoint x="905" y="1360" />
              <mxPoint x="420" y="1360" />
            </Array>
          </mxGeometry>
        </mxCell>
        <mxCell id="Wsw88-fqIVrCZRTNJ-jJ-141" value="Đủ" style="edgeLabel;html=1;align=center;verticalAlign=middle;resizable=0;points=[];" parent="Wsw88-fqIVrCZRTNJ-jJ-137" vertex="1" connectable="0">
          <mxGeometry x="-0.9434" relative="1" as="geometry">
            <mxPoint as="offset" />
          </mxGeometry>
        </mxCell>
        <mxCell id="Wsw88-fqIVrCZRTNJ-jJ-138" style="edgeStyle=orthogonalEdgeStyle;rounded=0;orthogonalLoop=1;jettySize=auto;html=1;entryX=0.72;entryY=0.987;entryDx=0;entryDy=0;entryPerimeter=0;endArrow=classic;endFill=1;" parent="WIyWlLk6GJQsqaUBKTNV-1" source="Wsw88-fqIVrCZRTNJ-jJ-132" target="Wsw88-fqIVrCZRTNJ-jJ-87" edge="1">
          <mxGeometry relative="1" as="geometry">
            <Array as="points">
              <mxPoint x="1069" y="1210" />
            </Array>
          </mxGeometry>
        </mxCell>
        <mxCell id="Wsw88-fqIVrCZRTNJ-jJ-142" value="Thiếu" style="edgeLabel;html=1;align=center;verticalAlign=middle;resizable=0;points=[];" parent="Wsw88-fqIVrCZRTNJ-jJ-138" vertex="1" connectable="0">
          <mxGeometry x="-0.5625" y="-2" relative="1" as="geometry">
            <mxPoint as="offset" />
          </mxGeometry>
        </mxCell>
        <mxCell id="Wsw88-fqIVrCZRTNJ-jJ-132" value="Đủ hàng?" style="rhombus;whiteSpace=wrap;html=1;" parent="WIyWlLk6GJQsqaUBKTNV-1" vertex="1">
          <mxGeometry x="840" y="1175" width="130" height="70" as="geometry" />
        </mxCell>
      </root>
    </mxGraphModel>
  </diagram>
  <diagram id="RVSgq4qtMoVZtAPoYeZw" name="Page-2">
    <mxGraphModel dx="1278" dy="547" grid="1" gridSize="10" guides="1" tooltips="1" connect="1" arrows="1" fold="1" page="1" pageScale="1" pageWidth="850" pageHeight="1100" math="0" shadow="0">
      <root>
        <mxCell id="0" />
        <mxCell id="1" parent="0" />
        <mxCell id="eUtJeobhXYWIzW9L6U3j-14" value="" style="edgeStyle=orthogonalEdgeStyle;rounded=0;orthogonalLoop=1;jettySize=auto;html=1;" edge="1" parent="1" source="eUtJeobhXYWIzW9L6U3j-1" target="eUtJeobhXYWIzW9L6U3j-2">
          <mxGeometry relative="1" as="geometry" />
        </mxCell>
        <mxCell id="eUtJeobhXYWIzW9L6U3j-1" value="Bắt đầu" style="ellipse;whiteSpace=wrap;html=1;" vertex="1" parent="1">
          <mxGeometry x="115" y="10" width="110" height="60" as="geometry" />
        </mxCell>
        <mxCell id="eUtJeobhXYWIzW9L6U3j-15" style="edgeStyle=orthogonalEdgeStyle;rounded=0;orthogonalLoop=1;jettySize=auto;html=1;" edge="1" parent="1" source="eUtJeobhXYWIzW9L6U3j-2" target="eUtJeobhXYWIzW9L6U3j-5">
          <mxGeometry relative="1" as="geometry" />
        </mxCell>
        <mxCell id="eUtJeobhXYWIzW9L6U3j-2" value="Yêu cầu xuất/nhập kho" style="rounded=0;whiteSpace=wrap;html=1;" vertex="1" parent="1">
          <mxGeometry x="110" y="160" width="120" height="60" as="geometry" />
        </mxCell>
        <mxCell id="eUtJeobhXYWIzW9L6U3j-16" style="edgeStyle=orthogonalEdgeStyle;rounded=0;orthogonalLoop=1;jettySize=auto;html=1;" edge="1" parent="1" source="eUtJeobhXYWIzW9L6U3j-5" target="eUtJeobhXYWIzW9L6U3j-8">
          <mxGeometry relative="1" as="geometry" />
        </mxCell>
        <mxCell id="eUtJeobhXYWIzW9L6U3j-5" value="Tạo mẫu xuất/nhập kho" style="rounded=0;whiteSpace=wrap;html=1;" vertex="1" parent="1">
          <mxGeometry x="350" y="160" width="120" height="60" as="geometry" />
        </mxCell>
        <mxCell id="eUtJeobhXYWIzW9L6U3j-17" style="edgeStyle=orthogonalEdgeStyle;rounded=0;orthogonalLoop=1;jettySize=auto;html=1;entryX=0;entryY=0.5;entryDx=0;entryDy=0;" edge="1" parent="1" source="eUtJeobhXYWIzW9L6U3j-8" target="eUtJeobhXYWIzW9L6U3j-10">
          <mxGeometry relative="1" as="geometry" />
        </mxCell>
        <mxCell id="eUtJeobhXYWIzW9L6U3j-8" value="Thông tin&lt;br&gt;&amp;nbsp;xuất/nhập kho" style="shape=parallelogram;perimeter=parallelogramPerimeter;whiteSpace=wrap;html=1;fixedSize=1;" vertex="1" parent="1">
          <mxGeometry x="590" y="160" width="120" height="60" as="geometry" />
        </mxCell>
        <mxCell id="eUtJeobhXYWIzW9L6U3j-18" value="" style="edgeStyle=orthogonalEdgeStyle;rounded=0;orthogonalLoop=1;jettySize=auto;html=1;" edge="1" parent="1" source="eUtJeobhXYWIzW9L6U3j-10" target="eUtJeobhXYWIzW9L6U3j-11">
          <mxGeometry relative="1" as="geometry" />
        </mxCell>
        <mxCell id="eUtJeobhXYWIzW9L6U3j-10" value="Xác nhận đang tiến hành xử lý" style="rounded=0;whiteSpace=wrap;html=1;" vertex="1" parent="1">
          <mxGeometry x="820" y="160" width="120" height="60" as="geometry" />
        </mxCell>
        <mxCell id="eUtJeobhXYWIzW9L6U3j-19" value="" style="edgeStyle=orthogonalEdgeStyle;rounded=0;orthogonalLoop=1;jettySize=auto;html=1;" edge="1" parent="1" source="eUtJeobhXYWIzW9L6U3j-11" target="eUtJeobhXYWIzW9L6U3j-12">
          <mxGeometry relative="1" as="geometry" />
        </mxCell>
        <mxCell id="eUtJeobhXYWIzW9L6U3j-11" value="Xác nhận số lượng yêu cầu xuất/nhập kho đã sẵn sàng" style="rounded=0;whiteSpace=wrap;html=1;" vertex="1" parent="1">
          <mxGeometry x="820" y="330" width="120" height="60" as="geometry" />
        </mxCell>
        <mxCell id="eUtJeobhXYWIzW9L6U3j-20" style="edgeStyle=orthogonalEdgeStyle;rounded=0;orthogonalLoop=1;jettySize=auto;html=1;" edge="1" parent="1" source="eUtJeobhXYWIzW9L6U3j-12" target="eUtJeobhXYWIzW9L6U3j-13">
          <mxGeometry relative="1" as="geometry" />
        </mxCell>
        <mxCell id="eUtJeobhXYWIzW9L6U3j-12" value="Xác nhận số lượng xuất/nhập thực" style="rounded=0;whiteSpace=wrap;html=1;" vertex="1" parent="1">
          <mxGeometry x="590" y="330" width="120" height="60" as="geometry" />
        </mxCell>
        <mxCell id="eUtJeobhXYWIzW9L6U3j-13" value="Kết thúc" style="ellipse;whiteSpace=wrap;html=1;" vertex="1" parent="1">
          <mxGeometry x="360" y="330" width="110" height="60" as="geometry" />
        </mxCell>
      </root>
    </mxGraphModel>
  </diagram>
</mxfile>
